<svg width="111" height="46" viewBox="0 0 111 46" fill="none" xmlns="http://www.w3.org/2000/svg">
<path d="M54.1693 5.07994C56.5083 5.36337 58.0823 6.78052 58.0823 8.80814C58.0823 10.814 56.5739 12.2311 54.1693 12.5363V13.7137C54.1693 13.8663 54.06 13.9971 53.8851 13.9971H52.2675C52.1145 13.9971 51.9833 13.8881 51.9833 13.7137V12.5363C49.6443 12.2529 48.0703 10.814 48.0703 8.80814C48.0703 6.80232 49.5787 5.36337 51.9833 5.07994V3.90261C51.9833 3.75 52.0926 3.61918 52.2675 3.61918H53.8851C54.0382 3.61918 54.1693 3.72819 54.1693 3.90261V5.07994ZM52.0052 6.86773C50.8247 6.99854 50.1689 7.67442 50.1689 8.80814C50.1689 9.94186 50.8466 10.5959 52.0052 10.7703V6.86773ZM54.1693 10.7703C55.3498 10.6177 56.0056 9.94186 56.0056 8.80814C56.0056 7.67442 55.3279 6.99854 54.1693 6.86773V10.7703Z" fill="#3C3C3B"/>
<path d="M58.8693 11.7078C58.8693 10.1163 60.1153 9.06976 62.4325 9.06976H63.8534V8.72093C63.8534 7.95784 63.4599 7.71802 62.3887 7.71802C61.5581 7.71802 60.8148 7.87064 60.0934 8.21948C59.8967 8.28488 59.6999 8.19767 59.6999 8.00145L59.5688 7.02035C59.5469 6.86773 59.5906 6.75872 59.7218 6.71512C60.5306 6.36628 61.5581 6.14825 62.6073 6.14825C65.0338 6.14825 66.0612 6.95494 66.0612 9.06976V13.7137C66.0612 13.8663 65.9519 13.9971 65.7989 13.9971H64.1594C64.0064 13.9971 63.8534 13.8881 63.8534 13.7137V13.4956C63.1757 14.0189 62.5418 14.1715 61.7548 14.1715C60.159 14.1715 58.8693 13.2994 58.8693 11.7078ZM63.8315 12.0131V10.5959H62.4762C61.4706 10.5959 61.099 11.0102 61.099 11.686C61.099 12.3619 61.5362 12.6671 62.2357 12.6671C62.8478 12.6453 63.4817 12.4273 63.8315 12.0131Z" fill="#3C3C3B"/>
<path d="M74.6085 3.18314C74.7397 3.18314 74.8708 3.29215 74.8708 3.44477L74.9583 4.55668C74.9583 4.7093 74.8489 4.84011 74.6959 4.84011C72.7067 4.94913 70.9797 5.31977 70.1709 7.06395C70.6081 6.73692 71.2639 6.5843 71.8541 6.5843C73.8215 6.5843 75.1987 7.93604 75.1987 10.3561C75.1987 12.7326 73.6904 14.1933 71.5044 14.1933C68.9686 14.1933 67.5258 12.2747 67.5258 9.30959C67.504 5.84302 69.4058 3.35755 74.6085 3.18314ZM69.7774 8.96075V9.28779C69.7774 11.7515 70.4988 12.5799 71.5044 12.5799C72.4006 12.5799 72.9908 11.7296 72.9908 10.3561C72.9908 8.91715 72.4006 8.11046 71.3951 8.11046C70.8048 8.13227 70.1709 8.4593 69.7774 8.96075Z" fill="#3C3C3B"/>
<path d="M78.8931 16.5916C78.8931 16.7224 78.7838 16.8532 78.6089 16.8532H76.9694C76.8164 16.8532 76.6852 16.7224 76.6852 16.5916V6.5843C76.6852 6.45349 76.7945 6.32267 76.9694 6.32267H78.6089C78.7619 6.32267 78.8931 6.45349 78.8931 6.5843V6.82413C79.4396 6.32267 80.2265 6.14825 80.8386 6.14825C82.806 6.14825 84.2488 7.67442 84.2488 10.1599C84.2488 12.6017 82.7842 14.1715 80.8386 14.1715C80.1828 14.1715 79.4833 13.9753 78.8931 13.4956V16.5916ZM78.8931 12.0131C79.1991 12.3619 79.7238 12.5799 80.2703 12.5799C81.2977 12.5799 81.9972 11.8169 81.9972 10.1599C81.9972 8.4811 81.2758 7.73982 80.2703 7.73982C79.7238 7.73982 79.1991 7.95785 78.8931 8.30668V12.0131Z" fill="#3C3C3B"/>
<path d="M90.785 12.0131V6.58429C90.785 6.45348 90.8943 6.32266 91.0692 6.32266H92.7306C92.8617 6.32266 92.9929 6.45348 92.9929 6.58429V13.7137C92.9929 13.8663 92.8617 13.9971 92.7306 13.9971H91.0692C90.9162 13.9971 90.785 13.8881 90.785 13.7137V13.4956C90.1948 13.9753 89.4953 14.1715 88.7958 14.1715C86.8284 14.1715 85.6698 12.9288 85.6698 10.5523V6.58429C85.6698 6.45348 85.7791 6.32266 85.9539 6.32266H87.6153C87.7683 6.32266 87.8776 6.45348 87.8776 6.58429V10.5305C87.8776 11.9913 88.4023 12.5799 89.386 12.5799C89.9106 12.5799 90.4571 12.3619 90.785 12.0131Z" fill="#3C3C3B"/>
<path d="M96.8184 6.32267C96.9496 6.32267 97.0807 6.45349 97.0807 6.5843V9.61482L99.5072 6.45349C99.5728 6.34447 99.6602 6.30087 99.8132 6.30087H101.671C101.977 6.30087 102.043 6.5189 101.89 6.73692L99.3323 9.96366L102.13 13.5174C102.305 13.7355 102.218 13.9535 101.934 13.9535H100.054C99.9225 13.9535 99.8351 13.8881 99.7477 13.8009L97.1026 10.3997V13.7137C97.1026 13.8663 96.9714 13.9971 96.8403 13.9971H95.1789C95.0259 13.9971 94.8947 13.8881 94.8947 13.7137V6.5843C94.8947 6.45349 95.004 6.32267 95.1789 6.32267H96.8184Z" fill="#3C3C3B"/>
<path d="M102.808 11.7078C102.808 10.1163 104.054 9.06976 106.371 9.06976H107.792V8.72093C107.792 7.95784 107.399 7.71802 106.328 7.71802C105.497 7.71802 104.754 7.87064 104.032 8.21948C103.835 8.28488 103.639 8.19767 103.639 8.00145L103.508 7.02035C103.486 6.86773 103.529 6.75872 103.661 6.71512C104.469 6.36628 105.497 6.14825 106.546 6.14825C108.973 6.14825 110 6.95494 110 9.06976V13.7137C110 13.8663 109.891 13.9971 109.738 13.9971H108.098C107.945 13.9971 107.792 13.8881 107.792 13.7137V13.4956C107.115 14.0189 106.481 14.1715 105.694 14.1715C104.098 14.1715 102.808 13.2994 102.808 11.7078ZM107.77 12.0131V10.5959H106.415C105.409 10.5959 105.038 11.0102 105.038 11.686C105.038 12.3619 105.475 12.6671 106.175 12.6671C106.787 12.6453 107.421 12.4273 107.77 12.0131Z" fill="#3C3C3B"/>
<path d="M53.0107 26.5116C49.8629 26.5116 48.0703 24.1788 48.0703 21.1482C48.0703 18.1177 49.8629 15.7849 53.0107 15.7849C56.1804 15.7849 57.9511 18.1177 57.9511 21.1482C57.9292 24.1788 56.1586 26.5116 53.0107 26.5116ZM53.0107 17.6163C51.4368 17.6163 50.4312 18.9026 50.4312 21.1482C50.4312 23.3939 51.4368 24.6802 53.0107 24.6802C54.6065 24.6802 55.5902 23.3939 55.5902 21.1482C55.5902 18.9026 54.5847 17.6163 53.0107 17.6163Z" fill="#3C3C3B"/>
<path d="M61.4706 18.6628C61.6018 18.6628 61.7329 18.7936 61.7329 18.9244V21.9549L64.1594 18.7936C64.225 18.6846 64.3124 18.641 64.4654 18.641H66.3235C66.6296 18.641 66.6952 18.859 66.5421 19.077L63.9845 22.3038L66.7826 25.8576C66.9575 26.0756 66.87 26.2936 66.5859 26.2936H64.7059C64.5747 26.2936 64.4873 26.2282 64.3999 26.141L61.7329 22.6962V26.0102C61.7329 26.1628 61.6018 26.2936 61.4706 26.2936H59.8092C59.6562 26.2936 59.5251 26.1846 59.5251 26.0102V18.8808C59.5251 18.75 59.6344 18.6192 59.8092 18.6192H61.4706V18.6628Z" fill="#3C3C3B"/>
<path d="M67.3072 22.5C67.3072 20.1672 68.8593 18.4884 71.3076 18.4884C73.7778 18.4884 75.308 20.1672 75.308 22.5C75.308 24.8328 73.7778 26.5116 71.3076 26.5116C68.8593 26.5116 67.3072 24.8328 67.3072 22.5ZM73.0346 22.5C73.0346 20.952 72.3569 20.0799 71.2858 20.0799C70.1927 20.0799 69.5369 20.952 69.5369 22.5C69.5369 24.048 70.2146 24.9201 71.2858 24.9201C72.3788 24.9201 73.0346 24.048 73.0346 22.5Z" fill="#3C3C3B"/>
<path d="M81.8223 21.4535V18.9244C81.8223 18.7936 81.9316 18.6628 82.1065 18.6628H83.7678C83.899 18.6628 84.0302 18.7936 84.0302 18.9244V26.0538C84.0302 26.2064 83.899 26.3372 83.7678 26.3372H82.1065C81.9535 26.3372 81.8223 26.2282 81.8223 26.0538V23.0232H78.9805V26.0538C78.9805 26.2064 78.8493 26.3372 78.7182 26.3372H77.0568C76.9038 26.3372 76.7726 26.2282 76.7726 26.0538V18.9244C76.7726 18.7936 76.8819 18.6628 77.0568 18.6628H78.7182C78.8493 18.6628 78.9805 18.7936 78.9805 18.9244V21.4535H81.8223Z" fill="#3C3C3B"/>
<path d="M20.3081 15C22.1915 15 23.7182 13.4773 23.7182 11.5988C23.7182 9.72043 22.1915 8.19768 20.3081 8.19768C18.4247 8.19768 16.8979 9.72043 16.8979 11.5988C16.8979 13.4773 18.4247 15 20.3081 15Z" fill="#F26422"/>
<path d="M34.4734 4.22965C30.6697 1.50436 25.6419 0 20.308 0C14.9742 0 9.94634 1.50436 6.14269 4.22965C2.18601 7.06395 0 10.8794 0 15C0 19.0988 2.18601 22.936 6.14269 25.7703C9.94634 28.4956 14.9742 30 20.308 30C25.6419 30 30.6697 28.4956 34.4734 25.7703C38.43 22.936 40.6161 19.1206 40.6161 15C40.6379 10.8794 38.4519 7.06395 34.4734 4.22965ZM32.1781 22.8706C29.9046 24.5058 26.9535 25.6395 23.7401 26.1192C23.6089 26.141 23.4777 26.032 23.4559 25.9012L22.8001 20.2762C22.7782 20.1453 22.8875 20.0145 23.0187 20.0145C26.2977 19.6875 29.4018 18.75 32.0906 17.2456C32.1999 17.1802 32.2436 17.0276 32.1781 16.8968L30.7134 14.3241C30.6479 14.2151 30.4948 14.1715 30.3855 14.2369C27.4781 15.8503 24.0024 16.7006 20.3299 16.7006C16.6574 16.7006 13.1816 15.8503 10.2742 14.2369C10.1649 14.1715 10.0119 14.2151 9.94634 14.3241L8.48172 16.8968C8.41614 17.0058 8.45986 17.1584 8.56916 17.2456C11.2579 18.75 14.3621 19.6875 17.6411 20.0145C17.7723 20.0363 17.8816 20.1453 17.8597 20.2762L17.2039 25.9012C17.182 26.032 17.0509 26.141 16.9197 26.1192C13.7063 25.6395 10.7552 24.5058 8.48172 22.8706C5.48688 20.734 3.84738 17.9433 3.84738 15C3.84738 12.0785 5.48688 9.28779 8.48172 7.12936C11.6296 4.88372 15.8267 3.64099 20.3299 3.64099C24.8331 3.64099 29.0302 4.88372 32.1781 7.12936C35.1729 9.26599 36.8124 12.0567 36.8124 15C36.7905 17.9433 35.151 20.734 32.1781 22.8706Z" fill="#F26422"/>
<path d="M7.39784 34.9778C7.39784 34.8482 7.3036 34.754 7.17402 34.754H6.3612C6.23162 34.754 6.11382 34.8011 6.05492 34.9307L1.93192 41.716V34.9778C1.93192 34.8482 1.81412 34.754 1.7081 34.754H1.15444C1.02486 34.754 0.9424 34.8482 0.9424 34.9778V42.7762C0.9424 42.8822 1.02486 43 1.15444 43H1.99082C2.09684 43 2.22642 42.9175 2.28532 42.8233L6.40832 36.038V42.7762C6.40832 42.8822 6.49078 43 6.63214 43H7.17402C7.3036 43 7.39784 42.8822 7.39784 42.7762V34.9778ZM13.9358 41.9751C13.5235 42.1754 13.017 42.2696 12.5458 42.2696C11.1793 42.2696 10.2958 41.3979 10.2958 39.949C10.2958 38.4765 11.1793 37.6283 12.4987 37.6283C13.017 37.6283 13.5 37.7226 13.8769 37.8993C14.0183 37.9582 14.1243 37.9228 14.1361 37.7932L14.1832 37.2985C14.195 37.1453 14.1479 37.0511 14.0183 37.0158C13.5942 36.8391 13.0759 36.7566 12.4633 36.7566C10.6139 36.7566 9.28273 38.0053 9.28273 39.949C9.28273 41.8691 10.6021 43.1414 12.5458 43.1414C13.1466 43.1414 13.6531 43.0471 14.0772 42.8586C14.2186 42.8115 14.2539 42.7291 14.2421 42.5759L14.195 42.0812C14.1832 41.9516 14.0772 41.8927 13.9358 41.9751ZM19.8617 36.898C19.7086 36.898 19.5908 36.9569 19.4612 37.0864L16.9638 39.6191V37.1218C16.9638 36.9922 16.8814 36.898 16.7518 36.898H16.1864C16.0803 36.898 15.9743 36.9922 15.9743 37.1218V42.7762C15.9743 42.9058 16.0803 43 16.1864 43H16.7518C16.8814 43 16.9638 42.9058 16.9638 42.7762V40.0314L19.7086 42.8115C19.8146 42.9175 19.9677 43 20.1209 43H20.8866C21.0279 43 21.0633 42.8704 20.969 42.7762L18.0005 39.8312L20.6863 37.1218C20.7923 37.0158 20.7452 36.898 20.6392 36.898H19.8617ZM23.5206 42.5288C23.9447 42.9058 24.5337 43.1414 25.2287 43.1414C26.8308 43.1414 28.0677 41.9162 28.0677 39.949C28.0677 37.9582 26.8308 36.7566 25.2287 36.7566C24.5337 36.7566 23.9447 36.9922 23.5206 37.3692V37.1218C23.5206 36.9922 23.4381 36.898 23.3086 36.898H22.7431C22.6371 36.898 22.5311 36.9922 22.5311 37.1218V45.0497C22.5311 45.1911 22.6371 45.2735 22.7431 45.2735H23.3086C23.4381 45.2735 23.5206 45.1911 23.5206 45.0497V42.5288ZM25.1345 37.6283C26.2418 37.6283 27.0546 38.4058 27.0546 39.949C27.0546 41.4804 26.2418 42.2696 25.1345 42.2696C24.4748 42.2696 23.8976 41.9987 23.5206 41.5157V38.3822C23.8976 37.8993 24.4748 37.6283 25.1345 37.6283ZM30.5071 39.5013C30.566 38.3351 31.2256 37.6283 32.2505 37.6283C33.2636 37.6283 33.9233 38.3351 33.9822 39.5013H30.5071ZM34.3356 42.7526C34.4534 42.6937 34.5005 42.5877 34.4887 42.4581L34.4416 41.9751C34.4298 41.8338 34.3002 41.7749 34.1706 41.8691C33.7112 42.1636 33.1811 42.2696 32.5686 42.2696C31.3788 42.2696 30.6013 41.5275 30.5071 40.3495H34.7832C34.9128 40.3495 35.007 40.2435 35.007 40.1375V39.9843C35.007 38.0642 34.0057 36.7566 32.2505 36.7566C30.5542 36.7566 29.4822 38.0171 29.4822 39.9372C29.4822 41.7278 30.5188 43.1414 32.545 43.1414C33.2636 43.1414 33.8644 43 34.3356 42.7526ZM37.704 39.254V37.1218C37.704 36.9804 37.6098 36.898 37.4802 36.898H36.9383C36.8323 36.898 36.7145 36.9804 36.7145 37.1218V42.7762C36.7145 42.9058 36.8323 43 36.9383 43H37.4802C37.6098 43 37.704 42.9058 37.704 42.7762V40.1021H40.9553V42.7762C40.9553 42.9058 41.0731 43 41.1791 43H41.721C41.8623 43 41.9448 42.9058 41.9448 42.7762V37.1218C41.9448 36.9804 41.8623 36.898 41.721 36.898H41.1791C41.0731 36.898 40.9553 36.9804 40.9553 37.1218V39.254H37.704ZM45.0545 39.254V37.1218C45.0545 36.9804 44.9603 36.898 44.8307 36.898H44.2888C44.1828 36.898 44.065 36.9804 44.065 37.1218V42.7762C44.065 42.9058 44.1828 43 44.2888 43H44.8307C44.9603 43 45.0545 42.9058 45.0545 42.7762V40.1021H48.3058V42.7762C48.3058 42.9058 48.4236 43 48.5296 43H49.0715C49.2129 43 49.2953 42.9058 49.2953 42.7762V37.1218C49.2953 36.9804 49.2129 36.898 49.0715 36.898H48.5296C48.4236 36.898 48.3058 36.9804 48.3058 37.1218V39.254H45.0545ZM56.6341 43C56.7755 43 56.8579 42.9058 56.8579 42.7762V37.1218C56.8579 36.9804 56.7755 36.898 56.6341 36.898H55.9037C55.7977 36.898 55.7035 36.9451 55.6328 37.0511L52.4051 41.6571V37.1218C52.4051 36.9804 52.3226 36.898 52.193 36.898H51.6276C51.5216 36.898 51.4156 36.9804 51.4156 37.1218V42.7762C51.4156 42.9058 51.5216 43 51.6276 43H52.3462C52.4875 43 52.5582 42.9529 52.6407 42.8469L55.8684 38.2762V42.7762C55.8684 42.9058 55.9862 43 56.0922 43H56.6341ZM64.1917 43C64.3331 43 64.4155 42.9058 64.4155 42.7762V37.1218C64.4155 36.9804 64.3331 36.898 64.1917 36.898H63.4613C63.3553 36.898 63.2611 36.9451 63.1904 37.0511L59.9627 41.6571V37.1218C59.9627 36.9804 59.8802 36.898 59.7506 36.898H59.1852C59.0792 36.898 58.9732 36.9804 58.9732 37.1218V42.7762C58.9732 42.9058 59.0792 43 59.1852 43H59.9038C60.0451 43 60.1158 42.9529 60.1983 42.8469L63.426 38.2762V42.7762C63.426 42.9058 63.5438 43 63.6498 43H64.1917ZM61.6943 36.0145C62.6839 36.0145 63.4496 35.449 63.5791 34.4713C63.6027 34.3064 63.532 34.2239 63.3671 34.2239H62.9077C62.8134 34.2239 62.7428 34.3064 62.7074 34.4124C62.6132 34.9307 62.2244 35.2488 61.6943 35.2488C61.1642 35.2488 60.7755 34.9307 60.6813 34.4124C60.6695 34.3064 60.5752 34.2239 60.481 34.2239H60.0216C59.8567 34.2239 59.786 34.3064 59.8095 34.4713C59.9391 35.449 60.7284 36.0145 61.6943 36.0145ZM74.8334 41.9751C74.4211 42.1754 73.9145 42.2696 73.4433 42.2696C72.0768 42.2696 71.1933 41.3979 71.1933 39.949C71.1933 38.4765 72.0768 37.6283 73.3962 37.6283C73.9145 37.6283 74.3975 37.7226 74.7745 37.8993C74.9158 37.9582 75.0218 37.9228 75.0336 37.7932L75.0807 37.2985C75.0925 37.1453 75.0454 37.0511 74.9158 37.0158C74.4917 36.8391 73.9734 36.7566 73.3609 36.7566C71.5114 36.7566 70.1803 38.0053 70.1803 39.949C70.1803 41.8691 71.4996 43.1414 73.4433 43.1414C74.0441 43.1414 74.5506 43.0471 74.9747 42.8586C75.1161 42.8115 75.1514 42.7291 75.1396 42.5759L75.0925 42.0812C75.0807 41.9516 74.9747 41.8927 74.8334 41.9751ZM77.4283 39.5013C77.4872 38.3351 78.1469 37.6283 79.1717 37.6283C80.1848 37.6283 80.8445 38.3351 80.9034 39.5013H77.4283ZM81.2568 42.7526C81.3746 42.6937 81.4217 42.5877 81.4099 42.4581L81.3628 41.9751C81.351 41.8338 81.2214 41.7749 81.0919 41.8691C80.6324 42.1636 80.1023 42.2696 79.4898 42.2696C78.3 42.2696 77.5225 41.5275 77.4283 40.3495H81.7044C81.834 40.3495 81.9282 40.2435 81.9282 40.1375V39.9843C81.9282 38.0642 80.9269 36.7566 79.1717 36.7566C77.4754 36.7566 76.4034 38.0171 76.4034 39.9372C76.4034 41.7278 77.4401 43.1414 79.4662 43.1414C80.1848 43.1414 80.7856 43 81.2568 42.7526ZM84.6252 42.5288C85.0493 42.9058 85.6383 43.1414 86.3333 43.1414C87.9354 43.1414 89.1723 41.9162 89.1723 39.949C89.1723 37.9582 87.9354 36.7566 86.3333 36.7566C85.6383 36.7566 85.0493 36.9922 84.6252 37.3692V37.1218C84.6252 36.9922 84.5428 36.898 84.4132 36.898H83.8477C83.7417 36.898 83.6357 36.9922 83.6357 37.1218V45.0497C83.6357 45.1911 83.7417 45.2735 83.8477 45.2735H84.4132C84.5428 45.2735 84.6252 45.1911 84.6252 45.0497V42.5288ZM86.2391 37.6283C87.3464 37.6283 88.1592 38.4058 88.1592 39.949C88.1592 41.4804 87.3464 42.2696 86.2391 42.2696C85.5794 42.2696 85.0022 41.9987 84.6252 41.5157V38.3822C85.0022 37.8993 85.5794 37.6283 86.2391 37.6283ZM92.9075 43C94.7216 43 95.7347 42.3874 95.7347 41.2566C95.7347 40.5615 95.3224 39.9843 94.4153 39.7605C95.2046 39.4778 95.4166 38.9595 95.4166 38.4411C95.4166 37.3809 94.4035 36.898 92.7543 36.898H91.1523C91.0462 36.898 90.9402 36.9804 90.9402 37.1218V42.7762C90.9402 42.9058 91.0462 43 91.1523 43H92.9075ZM94.4035 38.5707C94.4035 39.1833 93.9206 39.4071 92.6601 39.4071H91.8591V37.7461H92.6601C93.9206 37.7461 94.4035 37.9582 94.4035 38.5707ZM94.7216 41.1977C94.7216 41.7984 94.2033 42.1518 92.7661 42.1518H91.8591V40.2435H92.7661C94.2033 40.2435 94.7216 40.5733 94.7216 41.1977ZM102.716 43C102.857 43 102.939 42.9058 102.939 42.7762V37.1218C102.939 36.9804 102.857 36.898 102.716 36.898H101.985C101.879 36.898 101.785 36.9451 101.714 37.0511L98.4865 41.6571V37.1218C98.4865 36.9804 98.404 36.898 98.2745 36.898H97.709C97.603 36.898 97.497 36.9804 97.497 37.1218V42.7762C97.497 42.9058 97.603 43 97.709 43H98.4276C98.569 43 98.6396 42.9529 98.7221 42.8469L101.95 38.2762V42.7762C101.95 42.9058 102.068 43 102.174 43H102.716ZM109.354 41.9751C108.942 42.1754 108.435 42.2696 107.964 42.2696C106.598 42.2696 105.714 41.3979 105.714 39.949C105.714 38.4765 106.598 37.6283 107.917 37.6283C108.435 37.6283 108.918 37.7226 109.295 37.8993C109.437 37.9582 109.543 37.9228 109.555 37.7932L109.602 37.2985C109.613 37.1453 109.566 37.0511 109.437 37.0158C109.013 36.8391 108.494 36.7566 107.882 36.7566C106.032 36.7566 104.701 38.0053 104.701 39.949C104.701 41.8691 106.021 43.1414 107.964 43.1414C108.565 43.1414 109.072 43.0471 109.496 42.8586C109.637 42.8115 109.672 42.7291 109.661 42.5759L109.613 42.0812C109.602 41.9516 109.496 41.8927 109.354 41.9751Z" fill="#3C3C3B"/>
</svg>
